<svg xmlns="http://www.w3.org/2000/svg" width="34" height="34" fill="none" viewBox="0 0 34 34">
    <path fill="#474C4F" fill-rule="evenodd" d="M25.493 24.037c.022-.479-.002-1.177-.073-2.05-.137-1.689-.442-3.954-.85-6.367-.764-4.513-1.867-9.019-2.082-9.218-.375-.35-2.76-.735-5.421-.735-2.662 0-5.047.386-5.422.735-.223.208-1.423 4.767-2.215 9.127-.441 2.429-.753 4.664-.873 6.335-.063.868-.073 1.563-.03 2.04.007.082.016.154.025.215 1.54.832 4.588 1.381 8.515 1.381 3.846 0 6.849-.527 8.418-1.33l.008-.133zM15.585 2.871V1.417a1.417 1.417 0 1 1 2.833 0V2.864c2.651.123 5.084.611 6 1.464.94.875 1.982 5.131 2.945 10.819 1.154 6.815 1.435 10.275.057 11.173-1.982 1.291-5.66 2.013-10.354 2.013-4.692 0-8.371-.722-10.353-2.013-1.539-1.003-1.273-4.676-.07-11.297C7.624 9.61 8.787 5.19 9.713 4.328c.902-.839 3.27-1.325 5.87-1.457zM17 32.583a2.833 2.833 0 0 1-2.833-2.833h5.666a2.833 2.833 0 0 1-2.833 2.833z" clip-rule="evenodd"/>
    <mask id="a" width="24" height="33" x="5" y="0" maskUnits="userSpaceOnUse">
        <path fill="#fff" fill-rule="evenodd" d="M25.493 24.037c.022-.479-.002-1.177-.073-2.05-.137-1.689-.442-3.954-.85-6.367-.764-4.513-1.867-9.019-2.082-9.218-.375-.35-2.76-.735-5.421-.735-2.662 0-5.047.386-5.422.735-.223.208-1.423 4.767-2.215 9.127-.441 2.429-.753 4.664-.873 6.335-.063.868-.073 1.563-.03 2.04.007.082.016.154.025.215 1.54.832 4.588 1.381 8.515 1.381 3.846 0 6.849-.527 8.418-1.33l.008-.133zM15.585 2.871V1.417a1.417 1.417 0 1 1 2.833 0V2.864c2.651.123 5.084.611 6 1.464.94.875 1.982 5.131 2.945 10.819 1.154 6.815 1.435 10.275.057 11.173-1.982 1.291-5.66 2.013-10.354 2.013-4.692 0-8.371-.722-10.353-2.013-1.539-1.003-1.273-4.676-.07-11.297C7.624 9.61 8.787 5.19 9.713 4.328c.902-.839 3.27-1.325 5.87-1.457zM17 32.583a2.833 2.833 0 0 1-2.833-2.833h5.666a2.833 2.833 0 0 1-2.833 2.833z" clip-rule="evenodd"/>
    </mask>
</svg>
